<svg xmlns="http://www.w3.org/2000/svg" viewBox="0 0 1200 675" role="img" aria-labelledby="title desc">
  <title id="title">Pre-Open Source skill intro image</title>
  <desc id="desc">A security audit interface card for the Pre-Open Source Codex skill.</desc>
  <defs>
    <linearGradient id="bg" x1="0" x2="1" y1="0" y2="1">
      <stop offset="0" stop-color="#06161a"/>
      <stop offset=".52" stop-color="#0c5136"/>
      <stop offset="1" stop-color="#72e58d"/>
    </linearGradient>
    <pattern id="grid" width="32" height="32" patternUnits="userSpaceOnUse">
      <path d="M32 0H0V32" fill="none" stroke="#d7ffe8" stroke-opacity=".14" stroke-width="2"/>
    </pattern>
    <filter id="shadow" x="-20%" y="-20%" width="140%" height="140%">
      <feDropShadow dx="12" dy="12" stdDeviation="0" flood-color="#02090b" flood-opacity=".62"/>
    </filter>
  </defs>
  <rect width="1200" height="675" fill="url(#bg)"/>
  <rect width="1200" height="675" fill="url(#grid)"/>
  <rect x="84" y="78" width="1032" height="520" fill="#071a1f" stroke="#d7ffe8" stroke-width="6" filter="url(#shadow)"/>
  <rect x="84" y="78" width="1032" height="66" fill="#72e58d"/>
  <circle cx="126" cy="112" r="12" fill="#071a1f"/>
  <circle cx="166" cy="112" r="12" fill="#071a1f"/>
  <circle cx="206" cy="112" r="12" fill="#071a1f"/>
  <text x="250" y="123" fill="#071a1f" font-family="ui-monospace, SFMono-Regular, Menlo, monospace" font-size="26" font-weight="700">SKILL / PUBLIC RELEASE AUDIT</text>
  <text x="126" y="236" fill="#d7ffe8" font-family="ui-monospace, SFMono-Regular, Menlo, monospace" font-size="58" font-weight="800">Pre-Open</text>
  <text x="126" y="304" fill="#d7ffe8" font-family="ui-monospace, SFMono-Regular, Menlo, monospace" font-size="58" font-weight="800">Source</text>
  <text x="130" y="372" fill="#fff5bd" font-family="ui-monospace, SFMono-Regular, Menlo, monospace" font-size="25">secrets + license + docs + repo hygiene</text>
  <g transform="translate(730 194)">
    <path d="M148 0l128 42v104c0 94-60 152-128 186C80 298 20 240 20 146V42z" fill="#102a32" stroke="#8cff9f" stroke-width="6"/>
    <path d="M92 152l38 38 82-96" fill="none" stroke="#72e58d" stroke-width="18" stroke-linecap="square"/>
    <text x="74" y="275" fill="#d7ffe8" font-family="ui-monospace, SFMono-Regular, Menlo, monospace" font-size="28" font-weight="800">READY</text>
  </g>
  <rect x="126" y="470" width="494" height="58" fill="#d7ffe8" stroke="#071a1f" stroke-width="4"/>
  <text x="152" y="508" fill="#071a1f" font-family="ui-monospace, SFMono-Regular, Menlo, monospace" font-size="24" font-weight="800">git clone skill-pre-open-source</text>
</svg>
